<svg width="73" height="79" viewBox="0 0 73 79" fill="none" xmlns="http://www.w3.org/2000/svg">
<path d="M72.5532 40.7969C72.0344 40.0187 71.2563 39.5 70.2188 39.5C64.5126 39.5 59.0657 42.0938 55.6938 46.7625L53.3594 49.875C50.5063 53.2469 46.0969 55.0625 41.6875 55.0625H33.9063C32.35 55.0625 31.3125 54.025 31.3125 52.4688C31.3125 50.9125 32.35 49.875 33.9063 49.875H38.8344C42.9844 49.875 46.875 46.5031 46.875 42.3531V42.0938C46.875 40.7969 45.5782 39.5 44.2813 39.5V26.2719C54.3969 24.975 62.4375 16.1562 62.4375 5.78125C62.4375 4.225 61.4 3.1875 59.8438 3.1875C53.6188 3.1875 48.1719 6.04062 44.2813 10.1906V3.1875C44.2813 1.63125 43.2438 0.59375 41.6875 0.59375C40.1313 0.59375 39.0938 1.63125 39.0938 3.1875V17.9719C35.2032 13.8219 29.7563 10.9688 23.5313 10.9688C21.975 10.9688 20.9375 12.0063 20.9375 13.5625C20.9375 24.1969 28.9782 32.7562 39.0938 34.0531V39.5H28.4594C19.1219 39.5 11.6 43.65 7.45005 50.3938L0.446924 61.2875C-0.0718262 62.0656 -0.0718262 63.1031 0.446924 63.8812L8.22817 76.85C8.48755 77.3688 9.26567 77.8875 9.78442 78.1469C10.0438 78.1469 10.0438 78.1469 10.3032 78.1469C10.8219 78.1469 11.3407 77.8875 11.8594 77.6281C21.7157 71.1438 33.1282 67.7719 44.8 67.7719C53.3594 67.7719 61.1407 63.1031 65.2907 55.5813L72.2938 43.1312C72.8125 42.6125 72.8125 41.575 72.5532 40.7969Z" fill="white"/>
</svg>
