<svg width="106" height="106" viewBox="0 0 106 106" fill="none" xmlns="http://www.w3.org/2000/svg">
<path d="M53 26.5C56.6589 26.5 59.625 23.5339 59.625 19.875C59.625 16.2161 56.6589 13.25 53 13.25C49.3411 13.25 46.375 16.2161 46.375 19.875C46.375 23.5339 49.3411 26.5 53 26.5Z" stroke="white" stroke-width="3" stroke-miterlimit="10" stroke-linecap="round" stroke-linejoin="round"/>
<path d="M53 69.5625V89.4375" stroke="white" stroke-width="3" stroke-miterlimit="10" stroke-linecap="round" stroke-linejoin="round"/>
<path d="M53 39.75V69.5625" stroke="white" stroke-width="3" stroke-miterlimit="10" stroke-linecap="round" stroke-linejoin="round"/>
<path d="M72.875 18.2188C72.875 18.8813 72.875 19.2125 72.875 19.875C72.875 30.8062 63.9312 39.75 53 39.75C42.0688 39.75 33.125 30.8062 33.125 19.875C33.125 19.2125 33.125 18.8813 33.125 18.2188L9.9375 39.75L53 53L96.0625 39.75L72.875 18.2188Z" stroke="white" stroke-width="3" stroke-miterlimit="10" stroke-linecap="round" stroke-linejoin="round"/>
<path d="M35.4437 65.2563C33.7875 63.9313 33.125 62.6063 33.125 61.2812C33.125 56.6438 42.0688 53 53 53C63.9312 53 72.875 56.6438 72.875 61.2812C72.875 65.9187 63.9312 69.5625 53 69.5625" stroke="white" stroke-width="3" stroke-miterlimit="10" stroke-linecap="round" stroke-linejoin="round"/>
<path d="M44.0563 81.1562C41.4063 79.8312 39.75 78.175 39.75 76.1875C39.75 72.5437 45.7125 69.5625 53 69.5625" stroke="white" stroke-width="3" stroke-miterlimit="10" stroke-linecap="round" stroke-linejoin="round"/>
<path d="M53 82.8125C58.6313 82.8125 62.9375 85.7937 62.9375 89.4375C62.9375 93.0813 58.6313 96.0625 53 96.0625C47.3687 96.0625 43.0625 93.0813 43.0625 89.4375" stroke="white" stroke-width="3" stroke-miterlimit="10" stroke-linecap="round" stroke-linejoin="round"/>
</svg>
