<svg width="100" height="100" viewBox="0 0 100 100" fill="none" xmlns="http://www.w3.org/2000/svg">
<path fill-rule="evenodd" clip-rule="evenodd" d="M12.1 30.3L10.8 29.6L10.1 30.9L11.4 31.6L12.1 30.3ZM11.6 28.2L11.3 28.8L15.1 30.8L13.9 31.2L12.9 30.7L12.2 32L12.9 32.4C13 32.5 13 32.5 13 32.6C13 32.6 12.9 32.7 12.7 32.7L11.2 33.1C11 33.1 10.9 33.1 10.8 33C10.7 32.9 10.7 32.8 10.7 32.7L10.9 32.3L9.60001 31.6L9.20001 32.3L8.70001 32L10.9 27.9L11.6 28.2Z" fill="#32338B"/>
<path fill-rule="evenodd" clip-rule="evenodd" d="M14.2 24.3L13.6 25.1L14.9 26L14.3 26.8C13.9 27.4 13.8 27.8 14.1 28C14.4 28.2 14.6 28.1 14.8 27.9C14.8 27.8 14.9 27.8 14.9 27.6C14.7 27.3 14.7 27 14.8 26.8C15 26.4 15.3 26.3 15.5 26.3C15.6 26.3 15.7 26.4 15.8 26.4C16 26.6 16.1 26.8 16 27.1L17 27L16.8 27.6L15.7 27.7C15.7 27.8 15.6 27.8 15.6 27.9C15.4 28.3 15 28.5 14.5 28.5C14 28.5 13.6 28.4 13.2 28.2C13 28 12.9 27.8 12.8 27.5C12.8 27.2 12.9 27 13 26.7L13.6 25.9L13 25.5L11.7 27.3L11.4 27L13.6 23.9L14.2 24.3Z" fill="#32338B"/>
<path fill-rule="evenodd" clip-rule="evenodd" d="M17.2 20.7L16.8 21.2L20.1 24L18.8 24.1L17.6 23.1L16.8 24.1L17.6 24.8C17.6 24.9 17.6 24.9 17.6 25C17.5 25.1 17.3 25.1 16.9 25.1C16.7 25.1 16.6 25.1 16.5 25.1C16.4 25.1 16.2 25 16.1 25C15.9 24.9 15.8 24.8 15.8 24.8C15.6 24.6 15.5 24.4 15.6 24.2C15.6 24.1 15.7 24 15.8 23.9L16.9 22.6L16.2 22L14.6 23.9L14 23.4L16.7 20.2L17.2 20.7Z" fill="#32338B"/>
<path fill-rule="evenodd" clip-rule="evenodd" d="M22.6 16.8C22.6 16.7 22.6 16.7 22.5 16.6C22.4 16.5 22.3 16.4 22.1 16.3C21.9 16.2 21.8 16.3 21.7 16.4C21.5 16.6 21.4 16.8 21.6 17C21.7 17.1 21.8 17.2 22 17.2C22.2 17.2 22.3 17.1 22.5 17C22.6 16.9 22.6 16.8 22.6 16.8ZM25.1 14.1L24.4 14.7L27 18.1L25.9 17.9L25.1 17L24.1 17.8L24.3 18.2C24.3 18.3 24.4 18.4 24.4 18.5L24.5 18.7C24.5 18.8 24.5 18.9 24.5 18.9C24.5 18.9 24.4 19 24.3 18.9C24.3 18.9 24.2 18.9 24.1 18.8L22.6 18.4H22.5C22.4 18.4 22.4 18.3 22.3 18.3C22.2 18.2 22.3 18.1 22.5 17.9L23 17.5L22.8 17.2C22.5 17.4 22.2 17.5 21.8 17.5C21.4 17.5 21.1 17.4 20.9 17.1L20.8 17C20.6 16.6 20.7 16.4 21 16.2C21.5 15.8 22.1 15.8 22.8 16.2C23 16.3 23.1 16.4 23.2 16.5L23.6 17L24.6 16.3L23.7 15.1L23 15.6L22.1 15.3L24.7 13.4L25.1 14.1Z" fill="#32338B"/>
<path fill-rule="evenodd" clip-rule="evenodd" d="M28.3 13.6L27.6 12.5L26.6 13.1L27.6 14.7C27.7 14.8 27.8 14.9 28 14.9C28.2 15 28.3 14.9 28.4 14.9C28.6 14.7 28.7 14.5 28.6 14.1C28.4 13.9 28.4 13.8 28.3 13.6ZM29 11.6L28.4 12L29.4 13.7C29.6 14 29.7 14.3 29.6 14.7C29.6 15.1 29.4 15.3 29.1 15.5C28.8 15.7 28.3 15.7 27.6 15.5C27 15.3 26.6 15.1 26.5 14.8L25.7 13.5L25.5 13.6L25.1 12.9L28.6 11L29 11.6Z" fill="#32338B"/>
<path fill-rule="evenodd" clip-rule="evenodd" d="M34 9.3L33.2 9.7L33.9 11.3L32.2 12C31.9 12.1 31.8 12.2 32 12.4C32.1 12.6 32.3 12.6 32.5 12.5L33.1 12.2C33.4 12 33.8 12 34.1 12.2C34.5 12.3 34.7 12.6 34.9 12.9C35.1 13.2 35 13.6 34.8 13.8C34.7 14 34.4 14.2 34 14.4L33.9 14.5C33.4 14.7 32.8 14.6 31.9 14.2C31.2 13.9 30.8 13.6 30.8 13.5L31 13.2C31 13.3 31.3 13.5 31.9 13.7C32.5 14 33 14 33.3 13.9C33.5 13.8 33.7 13.6 33.9 13.4C34.1 13.2 34.1 12.9 34 12.7C34 12.6 33.9 12.5 33.7 12.5C33.6 12.5 33.5 12.5 33.4 12.6C33.3 12.6 33.2 12.7 33 12.8C32.8 12.9 32.7 13 32.7 13C32.6 13.1 32.4 13 32.1 12.8C31.8 12.6 31.6 12.5 31.5 12.4C31.3 12.3 31.2 12.2 31.1 12C31 11.7 31.1 11.4 31.5 11.3L32.9 10.7L32.5 10L29.6 11.3L29.3 10.6L33.7 8.6L34 9.3Z" fill="#32338B"/>
<path fill-rule="evenodd" clip-rule="evenodd" d="M36.7 8.4L36 8.7L37.4 12.8L36.3 12.1L35.2 8.9L34.6 9.1L34.4 8.4L36.5 7.7L36.7 8.4Z" fill="#32338B"/>
<path fill-rule="evenodd" clip-rule="evenodd" d="M41.5 7.1L39.9 7.5C40.1 7.8 40.2 8 40.3 8.3C40.4 8.6 40.4 8.9 40.4 9.1C40.4 9.2 40.3 9.4 40.3 9.6C40.2 9.9 40.1 10.1 39.9 10.4L41.9 11.4L41.7 11.9L39.6 10.7C39.2 10.4 38.9 10.3 38.8 10.2C38.5 10 38.4 9.8 38.3 9.6C38.2 9.4 38.3 9.2 38.3 9.1C38.4 9 38.5 8.9 38.7 8.9C38.8 8.9 38.9 8.9 39 8.9C39.2 8.9 39.3 8.9 39.3 8.9C39.5 8.9 39.5 8.7 39.4 8.4V8.3C39.4 8.1 39.3 8 39.1 7.9L37 8.4L36.8 7.7L41 6.6L41.5 7.1Z" fill="#32338B"/>
<path fill-rule="evenodd" clip-rule="evenodd" d="M44.3 6.8L43.5 6.9L44.2 11.1L43.2 10.4L42.7 7L42 7.1L41.9 6.3L42.8 6.2C42.8 6 42.6 5.7 42.4 5.5C42 5.2 41.7 5.1 41.3 5.1C41.1 5.1 40.9 5.2 40.8 5.4C40.7 5.6 40.6 5.8 40.7 6C40.7 6.2 40.8 6.4 41 6.5L40.6 6.6C40.3 6.4 40.2 6.2 40.1 5.8C40.1 5.6 40.1 5.3 40.2 5.1C40.4 4.7 40.7 4.5 41.1 4.5H41.2C41.3 4.5 41.3 4.5 41.3 4.5C41.5 4.5 41.7 4.6 41.9 4.7C41.9 4.7 42.1 4.8 42.4 5.1C42.6 5.2 42.7 5.4 42.9 5.7C43.1 5.9 43.1 6.1 43.2 6.1L44.2 5.9L44.3 6.8Z" fill="#32338B"/>
<path fill-rule="evenodd" clip-rule="evenodd" d="M51.8 7.8V6.3H50.3V7.8H51.8ZM53.4 6.4H52.7L52.6 10.7L51.8 9.8V8.7H50.3V9.5C50.3 9.6 50.3 9.7 50.2 9.7C50.2 9.7 50.1 9.7 49.9 9.5L48.9 8.4C48.8 8.3 48.8 8.2 48.8 8C48.8 7.9 48.9 7.8 49 7.8H49.5V6.3H48.7V5.5L53.3 5.6L53.4 6.4Z" fill="#32338B"/>
<path fill-rule="evenodd" clip-rule="evenodd" d="M53 5.6H52.6C52.4 5.2 52.1 4.9 51.8 4.8C51.7 4.8 51.7 4.8 51.6 4.7C51.6 4.7 51.5 4.7 51.4 4.7C51.3 4.7 51.2 4.7 51.1 4.7L50.6 3.8C50.7 3.8 50.9 3.8 51 3.8C51.5 3.8 52 4.1 52.3 4.5C52.6 4.9 52.8 5.2 53 5.6Z" fill="#32338B"/>
<path fill-rule="evenodd" clip-rule="evenodd" d="M57.2 8.3L57.4 6.8L55.9 6.6L55.7 8.1L57.2 8.3ZM59 7.1L58.2 7L57.6 11.3L56.9 10.3L57.1 9.2L55.6 9L55.5 9.7C55.5 9.8 55.4 9.9 55.4 9.9C55.4 9.9 55.3 9.8 55.2 9.7L54.3 8.5C54.2 8.4 54.2 8.2 54.2 8.1C54.2 8 54.3 7.9 54.4 8L54.9 8.1L55.1 6.6L54.3 6.5L54.4 5.7L59 6.3V7.1Z" fill="#32338B"/>
<path fill-rule="evenodd" clip-rule="evenodd" d="M61.9 7.8L61.1 7.6L60.1 11.8L59.5 10.7L60.3 7.4L59.7 7.3L59.9 6.5L62.1 7.1L61.9 7.8Z" fill="#32338B"/>
<path fill-rule="evenodd" clip-rule="evenodd" d="M61.2 6.8L60.8 6.7C60.7 6.3 60.5 5.9 60.1 5.8C60.1 5.8 60 5.7 59.9 5.7C59.9 5.7 59.8 5.7 59.7 5.6C59.6 5.6 59.5 5.6 59.4 5.6L59 4.6C59.1 4.6 59.3 4.6 59.4 4.7C59.9 4.8 60.3 5.2 60.6 5.6C60.9 6 61.1 6.4 61.2 6.8Z" fill="#32338B"/>
<path fill-rule="evenodd" clip-rule="evenodd" d="M66.7 8.3L66.5 8.2C66.5 8 66.5 7.8 66.3 7.5C66.1 6.9 65.6 6.5 65 6.3C64.7 6.2 64.4 6.2 64.2 6.4C64 6.5 63.8 6.8 63.7 7C63.6 7.2 63.6 7.4 63.7 7.6L64.6 7.9L64.4 8.6L63.6 8.3L62.3 12.4L61.7 11.3L62.7 8L62.1 7.8L62.3 7.1L62.9 7.3C62.8 7 62.8 6.7 62.9 6.3C63 5.9 63.4 5.6 64.1 5.5C64.2 5.5 64.4 5.5 64.6 5.5C65.2 5.7 65.6 6 66 6.4C66.5 6.9 66.7 7.5 66.7 8.3Z" fill="#32338B"/>
<path fill-rule="evenodd" clip-rule="evenodd" d="M69 10.3L67.6 9.7C67.6 10 67.6 10.3 67.5 10.6C67.4 10.9 67.2 11.1 67.1 11.3C67 11.4 66.9 11.5 66.7 11.6C66.5 11.8 66.2 11.9 66 12L67 14L66.5 14.3L65.5 12C65.3 11.5 65.2 11.2 65.1 11.1C65 10.8 65 10.5 65.1 10.3C65.2 10.1 65.3 10 65.4 9.9C65.5 9.9 65.7 9.9 65.9 10C66 10 66.1 10.1 66.2 10.2C66.3 10.3 66.4 10.4 66.5 10.4C66.7 10.5 66.8 10.3 66.9 10V9.9C67 9.7 67 9.6 66.9 9.4L64.9 8.6L65.2 7.9L69.3 9.5L69 10.3Z" fill="#32338B"/>
<path fill-rule="evenodd" clip-rule="evenodd" d="M71.2 13.3L72 11.8L70.8 11.2C70.7 11.5 70.6 11.8 70.5 12.1L70.4 12.3C70.4 12.4 70.3 12.4 70.3 12.5C70.2 12.6 70.1 12.7 70 12.8C69.7 13 69.4 13.1 69.1 13C69.2 13.3 69.3 13.4 69.4 13.5C69.5 13.6 69.8 13.6 70 13.6C70.1 13.6 70.2 13.6 70.4 13.5C70.8 13.5 71 13.4 71.2 13.3ZM73.5 12.7L72.7 12.3L70.7 16.1L70.4 15L70.7 14.5C70.3 14.6 69.9 14.5 69.5 14.3C69.2 14.2 69 13.9 68.9 13.7C68.7 13.4 68.7 13.1 68.7 12.8C68.7 12.6 68.8 12.5 68.8 12.4C68.8 12.3 68.9 12.2 69 12.1C69 12.1 69.1 12.1 69.1 12.2C69.4 12.4 69.7 12.3 69.9 11.9L70 11.8C70.1 11.6 70.2 11.3 70.2 11.1L69.6 10.6L69.9 9.9L73.8 12L73.5 12.7Z" fill="#32338B"/>
<path fill-rule="evenodd" clip-rule="evenodd" d="M78.4 16L77.8 15.6L75.3 19.1L75.1 17.8L76.1 16.3C75.8 16.2 75.4 16.2 75 16.3C74.9 16.3 74.9 16.3 74.7 16.4L74.6 15.5L75 15.4C75 15.2 74.9 15.1 74.7 15C74.5 14.9 74.4 14.9 74.2 14.9C74 15 73.9 15.1 73.8 15.2C73.7 15.4 73.7 15.5 73.7 15.7L73.9 16.9L73.5 17L73.3 15.8C73.3 15.7 73.2 15.4 73.2 15.1C73.2 14.9 73.2 14.6 73.3 14.4L73.4 14.3C73.7 14 74.2 13.9 74.7 14.1C74.9 14.2 75.1 14.3 75.2 14.6C75.4 14.9 75.5 15.1 75.5 15.3C75.6 15.3 75.7 15.3 75.7 15.3C76 15.3 76.2 15.4 76.4 15.5C76.5 15.5 76.5 15.6 76.5 15.6L77 15L74.2 13L74.6 12.4L78.8 15.3L78.4 16Z" fill="#32338B"/>
<path fill-rule="evenodd" clip-rule="evenodd" d="M82.3 21.9L82.4 21.8C82.4 21.7 82.3 21.5 82.2 21.4C82 21.1 81.7 21 81.5 21C81.4 21 81.3 21 81.3 21.1C81.2 21.2 81.2 21.3 81.3 21.5C81.4 21.6 81.6 21.7 82 21.9C82 21.8 82.1 21.9 82.3 21.9ZM85.8 23.3L84.2 21.5L83.5 22.1C83.7 22.2 83.9 22.3 84.1 22.4C84.4 22.7 84.4 23.1 84.3 23.5C84.2 23.9 84 24.2 83.7 24.4C83.3 24.7 83 24.9 82.6 25V24L83.2 23.9C83.4 23.8 83.6 23.8 83.7 23.6C83.9 23.4 83.9 23.2 83.7 23.1L83.6 23C83.5 22.9 83.4 22.9 83.3 22.9C83.1 22.8 82.9 22.8 82.7 22.8L80.9 24.4L81 23.1L81.7 22.5C81.4 22.5 81.1 22.3 80.9 22C80.8 21.9 80.8 21.9 80.8 21.8C80.7 21.6 80.7 21.3 80.8 21C80.9 20.7 81 20.4 81.2 20.3C81.6 20 82 20 82.4 20.3L82.5 20.4C82.6 20.5 82.7 20.7 82.8 21C82.8 21.1 82.9 21.2 82.9 21.4L83.6 20.8L82.1 19.1L82.7 18.6L86.5 22.8L85.8 23.3Z" fill="#32338B"/>
<path fill-rule="evenodd" clip-rule="evenodd" d="M89.2 28.2L88.8 27.6L85.3 30.1L85.5 28.8L87 27.8C86.7 27.6 86.4 27.5 86 27.4C85.9 27.4 85.8 27.4 85.7 27.4L85.9 26.5L86.3 26.6C86.3 26.4 86.3 26.3 86.2 26.2C86.1 26 85.9 25.9 85.8 25.9C85.6 25.9 85.4 25.9 85.3 26.1C85.1 26.2 85.1 26.4 85 26.6L84.8 27.8H84.4L84.6 26.6C84.6 26.5 84.7 26.2 84.7 25.9C84.8 25.7 84.9 25.5 85.1 25.3C85.1 25.3 85.2 25.3 85.2 25.2C85.6 25 86 25.1 86.5 25.4C86.6 25.5 86.8 25.7 86.8 26.1C86.9 26.4 86.9 26.7 86.8 26.8C86.9 26.8 87 26.8 87 26.9C87.2 27 87.4 27.2 87.6 27.4C87.6 27.5 87.7 27.5 87.7 27.5L88.3 27L86.3 24.2L86.9 23.8L89.8 28L89.2 28.2Z" fill="#32338B"/>
<path fill-rule="evenodd" clip-rule="evenodd" d="M89.5 27.4L89.3 27C89.5 26.6 89.6 26.2 89.5 25.8C89.5 25.7 89.5 25.7 89.4 25.6C89.4 25.6 89.4 25.5 89.3 25.4C89.3 25.3 89.2 25.3 89.1 25.2L89.5 24.3C89.6 24.4 89.7 24.5 89.7 24.6C90 25.1 90 25.6 89.9 26.1C89.8 26.6 89.7 27 89.5 27.4Z" fill="#32338B"/>
<path fill-rule="evenodd" clip-rule="evenodd" d="M92 33.9L91.7 33.2L87.8 35L88.2 33.8L89.7 33.1L89.2 32C89.1 32.3 88.9 32.6 88.6 32.7C88.4 32.8 88.1 32.8 87.9 32.8C87.7 32.7 87.5 32.6 87.4 32.4C87.3 32.2 87.3 31.9 87.3 31.6C87.4 31.3 87.5 31 87.6 30.8L88.6 29.6L88.9 29.8L88 31C87.8 31.2 87.8 31.4 87.9 31.6C88 31.8 88.2 31.9 88.4 31.8C88.6 31.7 88.7 31.5 88.9 31.1L89.3 30.3L90.4 32.5L91.2 32.1L89.6 28.8L90.3 28.5L92.6 33.3L92 33.9Z" fill="#32338B"/>
<path fill-rule="evenodd" clip-rule="evenodd" d="M6.29999 51.1L10.7 51V52.3L7.69999 53.2L10.8 53.9V55.2L6.39999 55.4V54.6L9.89999 54.4L6.39999 53.7L6.29999 52.8L9.79999 51.8L6.29999 52V51.1Z" fill="#32338B"/>
<path fill-rule="evenodd" clip-rule="evenodd" d="M8.70002 59L10.2 58.1L8.50002 57.8L8.70002 59ZM7.20002 60.9L7.00002 59.9L7.90002 59.4L7.60002 57.6L6.50002 57.4L6.40002 56.5L11 57.5L11.1 58.4L7.20002 60.9Z" fill="#32338B"/>
<path fill-rule="evenodd" clip-rule="evenodd" d="M11.3 61.8L8.5 62.7L8.7 63.3C8.8 63.5 8.8 63.7 8.9 63.8C9 63.9 9.1 64 9.2 64.1C9.3 64.2 9.5 64.2 9.7 64.2C9.9 64.2 10.2 64.1 10.5 64C10.8 63.9 11.1 63.8 11.2 63.7C11.3 63.6 11.5 63.5 11.5 63.3C11.6 63.2 11.6 63 11.6 62.8C11.6 62.7 11.5 62.4 11.4 62.1L11.3 61.8ZM11.7 60.7L12.2 62.3C12.3 62.7 12.4 62.9 12.4 63.1C12.4 63.4 12.3 63.6 12.2 63.9C12.1 64.1 11.9 64.3 11.6 64.5C11.3 64.7 11 64.8 10.6 64.9C10.3 65 9.9 65.1 9.7 65C9.4 65 9.1 64.9 8.8 64.8C8.6 64.7 8.4 64.5 8.3 64.3C8.2 64.1 8.1 63.9 8 63.6L7.5 62L11.7 60.7Z" fill="#32338B"/>
<path fill-rule="evenodd" clip-rule="evenodd" d="M11.5 68.3L12.8 67.1L11.1 67.2L11.5 68.3ZM10.5 70.4L10.1 69.5L10.9 68.8L10.2 67.2H9.10001L8.70001 66.3L13.4 66.2L13.8 67.1L10.5 70.4Z" fill="#32338B"/>
<path fill-rule="evenodd" clip-rule="evenodd" d="M11 71.4L14.9 69.3L15.3 70L13.6 73L16.2 71.6L16.6 72.3L12.7 74.5L12.3 73.7L13.9 70.7L11.4 72.1L11 71.4Z" fill="#32338B"/>
<path fill-rule="evenodd" clip-rule="evenodd" d="M16.8 77L15.9 77.7L16.4 78.3C16.6 78.5 16.7 78.7 16.8 78.8C16.9 78.9 17 78.9 17.1 78.9C17.2 78.9 17.3 78.9 17.5 78.8C17.6 78.7 17.7 78.6 17.7 78.5C17.7 78.4 17.7 78.3 17.7 78.2C17.7 78.1 17.5 77.9 17.3 77.5L16.8 77ZM18.1 75.9L17.3 76.5L17.7 77C17.9 77.3 18.1 77.4 18.1 77.5C18.2 77.6 18.3 77.7 18.4 77.7C18.5 77.7 18.6 77.7 18.7 77.6C18.8 77.5 18.9 77.4 18.9 77.3C18.9 77.2 18.9 77.1 18.8 76.9C18.8 76.8 18.6 76.6 18.3 76.3L18.1 75.9ZM18.1 74.7L19.2 76.1C19.4 76.4 19.6 76.6 19.7 76.7C19.8 76.9 19.8 77 19.8 77.2C19.8 77.4 19.8 77.5 19.7 77.7C19.6 77.9 19.5 78 19.4 78.1C19.2 78.2 19.1 78.3 18.9 78.3C18.7 78.3 18.5 78.3 18.3 78.2C18.4 78.5 18.4 78.7 18.4 78.9C18.3 79.1 18.2 79.3 18 79.5C17.8 79.6 17.7 79.7 17.5 79.8C17.3 79.9 17.1 79.8 16.9 79.8C16.7 79.7 16.5 79.6 16.4 79.5C16.3 79.4 16.1 79.1 15.7 78.7L14.8 77.5L18.1 74.7Z" fill="#32338B"/>
<path fill-rule="evenodd" clip-rule="evenodd" d="M17.8 81.2L21 78.2L21.6 78.8L20.4 80L21.6 81.3L22.8 80.1L23.5 80.7L20.3 83.8L19.7 83.1L21.1 81.8L19.8 80.5L18.5 81.9L17.8 81.2Z" fill="#32338B"/>
<path fill-rule="evenodd" clip-rule="evenodd" d="M24.4 84.9L25 83.2L23.5 84.1L24.4 84.9ZM24.6 87.3L23.9 86.7L24.2 85.7L22.8 84.6L21.9 85.2L21.2 84.6L25.3 82.2L26 82.8L24.6 87.3Z" fill="#32338B"/>
<path fill-rule="evenodd" clip-rule="evenodd" d="M25.5 87.9L27.8 84.2L28.6 84.6L28.5 88.1L30.1 85.6L30.8 86L28.5 89.8L27.7 89.3V85.9L26.2 88.4L25.5 87.9Z" fill="#32338B"/>
<path fill-rule="evenodd" clip-rule="evenodd" d="M32.2 87.6L31 90.3L31.6 90.6C31.8 90.7 32 90.8 32.1 90.8C32.2 90.8 32.4 90.8 32.5 90.8C32.6 90.8 32.8 90.7 32.9 90.5C33 90.3 33.2 90.1 33.3 89.8C33.4 89.5 33.5 89.2 33.6 89C33.6 88.8 33.6 88.6 33.6 88.5C33.6 88.4 33.5 88.2 33.3 88.1C33.2 88 33 87.9 32.7 87.8L32.2 87.6ZM31.7 86.6L33.2 87.3C33.5 87.5 33.8 87.6 33.9 87.7C34.1 87.9 34.2 88.1 34.3 88.3C34.4 88.5 34.4 88.8 34.4 89.1C34.4 89.4 34.3 89.7 34.1 90.1C33.9 90.4 33.8 90.7 33.6 90.9C33.4 91.1 33.1 91.3 32.8 91.4C32.6 91.5 32.4 91.5 32.1 91.5C31.9 91.5 31.6 91.4 31.3 91.3L29.8 90.6L31.7 86.6Z" fill="#32338B"/>
<path fill-rule="evenodd" clip-rule="evenodd" d="M37.2 91.7V90L36.1 91.4L37.2 91.7ZM38.2 93.9L37.3 93.6V92.5L35.6 91.9L34.9 92.7L34 92.4L37.1 88.8L38 89.1L38.2 93.9Z" fill="#32338B"/>
<path fill-rule="evenodd" clip-rule="evenodd" d="M40.7 91.9L41.3 92C41.7 92.1 42 92.1 42.1 92.1C42.2 92.1 42.3 92 42.4 92C42.5 91.9 42.5 91.8 42.6 91.7C42.6 91.6 42.6 91.4 42.6 91.3C42.6 91.2 42.4 91.1 42.3 91.1C42.2 91.1 42 91 41.7 90.9L41 90.8L40.7 91.9ZM39.3 94.2L40.2 89.9L42 90.3C42.5 90.4 42.8 90.5 43 90.6C43.2 90.7 43.3 90.9 43.4 91.1C43.5 91.3 43.5 91.6 43.4 91.8C43.3 92.1 43.2 92.4 42.9 92.5C42.6 92.6 42.4 92.7 42 92.7C42.2 92.9 42.3 93 42.4 93.2C42.5 93.4 42.6 93.6 42.7 94L43 95L42 94.8L41.6 93.7C41.4 93.3 41.3 93.1 41.3 93C41.2 92.9 41.2 92.8 41.1 92.8C41 92.7 40.9 92.7 40.7 92.7H40.5L40.1 94.5L39.3 94.2Z" fill="#32338B"/>
<path d="M44.5703 90.7799L43.9578 95.1372L44.8491 95.2625L45.4616 90.9052L44.5703 90.7799Z" fill="#32338B"/>
<path fill-rule="evenodd" clip-rule="evenodd" d="M48.1 95.5V91.1L49.5 91.2L50.2 94.2L51 91.2H52.4L52.3 95.6H51.5V92.1L50.6 95.6H49.8L48.9 92.1V95.6L48.1 95.5Z" fill="#32338B"/>
<path fill-rule="evenodd" clip-rule="evenodd" d="M53.9 95.5L53.4 91.1L56.6 90.7L56.7 91.4L54.4 91.7L54.5 92.7L56.7 92.4L56.8 93.2L54.6 93.4L54.7 94.6L57.2 94.3L57.3 95.1L53.9 95.5Z" fill="#32338B"/>
<path fill-rule="evenodd" clip-rule="evenodd" d="M58.6 94.8L57.6 90.6L58.9 90.2L60.4 93V89.8L61.7 89.5L62.8 93.8L62 94L61.1 90.6V94.2L60.3 94.4L58.6 91.3L59.4 94.6L58.6 94.8Z" fill="#32338B"/>
<path fill-rule="evenodd" clip-rule="evenodd" d="M64.1 91C64.3 91.5 64.5 91.8 64.8 91.9C65.1 92.1 65.4 92.1 65.8 91.9C66.2 91.7 66.4 91.5 66.5 91.2C66.6 90.9 66.6 90.5 66.4 90C66.2 89.5 66 89.2 65.7 89.1C65.4 88.9 65.1 88.9 64.7 89.1C64.4 89.2 64.1 89.5 64 89.8C63.9 90.2 64 90.5 64.1 91ZM63.3 91.4C63.1 91 63.1 90.6 63.1 90.3C63.1 90.1 63.2 89.8 63.3 89.6C63.4 89.4 63.5 89.2 63.7 89C63.9 88.8 64.2 88.6 64.5 88.5C65.1 88.3 65.7 88.3 66.2 88.5C66.7 88.7 67.1 89.2 67.4 89.9C67.7 90.6 67.7 91.2 67.5 91.7C67.3 92.2 66.9 92.6 66.3 92.8C65.7 93 65.1 93 64.6 92.8C63.9 92.5 63.5 92 63.3 91.4Z" fill="#32338B"/>
<path fill-rule="evenodd" clip-rule="evenodd" d="M68.9 88.7L69.5 88.4C69.9 88.2 70.1 88.1 70.2 88C70.3 87.9 70.3 87.8 70.3 87.7C70.3 87.6 70.3 87.5 70.2 87.4C70.1 87.3 70 87.2 69.9 87.1C69.8 87.1 69.7 87.1 69.5 87.1C69.4 87.1 69.2 87.2 68.9 87.4L68.3 87.7L68.9 88.7ZM69.3 91.4L67.2 87.5L68.9 86.6C69.3 86.4 69.6 86.3 69.9 86.2C70.1 86.2 70.3 86.2 70.6 86.3C70.8 86.4 71 86.6 71.1 86.8C71.3 87.1 71.3 87.4 71.2 87.7C71.1 88 70.9 88.2 70.6 88.5C70.8 88.5 71 88.5 71.2 88.6C71.4 88.7 71.6 88.8 72 89L72.9 89.5L71.8 90L70.8 89.4C70.4 89.2 70.2 89.1 70.1 89C70 89 69.9 88.9 69.8 89C69.7 89 69.6 89.1 69.4 89.2L69.2 89.3L70.1 90.9L69.3 91.4Z" fill="#32338B"/>
<path d="M71.857 84.8141L71.0938 85.2911L73.4258 89.0223L74.189 88.5453L71.857 84.8141Z" fill="#32338B"/>
<path fill-rule="evenodd" clip-rule="evenodd" d="M76.2 85.1L74.7 84.2L75.2 85.9L76.2 85.1ZM78.5 85.5L77.7 86.1L76.8 85.5L75.4 86.6L75.7 87.6L74.9 88.2L73.6 83.6L74.4 83L78.5 85.5Z" fill="#32338B"/>
<path fill-rule="evenodd" clip-rule="evenodd" d="M79.3 84.8L76.3 81.6L77 81L79.4 83.6L81.1 82.1L81.6 82.7L79.3 84.8Z" fill="#32338B"/>
<path fill-rule="evenodd" clip-rule="evenodd" d="M84.1 77.2L84.9 76.7C85.2 77.1 85.3 77.5 85.3 77.9C85.3 78.3 85.1 78.7 84.8 79C84.4 79.5 84 79.7 83.4 79.7C82.9 79.7 82.3 79.5 81.8 79.1C81.2 78.6 80.9 78.1 80.8 77.6C80.7 77 80.9 76.5 81.3 76.1C81.6 75.7 82 75.4 82.5 75.4C82.8 75.4 83.1 75.4 83.4 75.6L83 76.4C82.8 76.3 82.6 76.3 82.4 76.3C82.2 76.3 82 76.5 81.9 76.6C81.7 76.9 81.6 77.1 81.7 77.4C81.8 77.7 82 78 82.4 78.4C82.8 78.8 83.2 78.9 83.5 78.9C83.8 78.9 84.1 78.8 84.3 78.5C84.4 78.3 84.5 78.1 84.5 77.9C84.4 77.7 84.3 77.5 84.1 77.2Z" fill="#32338B"/>
<path fill-rule="evenodd" clip-rule="evenodd" d="M85.3 74.7C85.7 75 86.1 75.1 86.4 75C86.7 74.9 87 74.8 87.2 74.5C87.4 74.2 87.4 73.9 87.3 73.6C87.2 73.3 86.9 73 86.5 72.7C86.1 72.4 85.7 72.3 85.4 72.4C85.1 72.5 84.8 72.6 84.6 73C84.4 73.4 84.4 73.6 84.4 74C84.6 74.1 84.8 74.4 85.3 74.7ZM84.8 75.4C84.4 75.2 84.1 74.9 83.9 74.6C83.8 74.4 83.7 74.2 83.6 73.9C83.5 73.6 83.5 73.4 83.6 73.2C83.6 72.9 83.8 72.6 84 72.3C84.3 71.7 84.8 71.4 85.3 71.3C85.9 71.2 86.4 71.3 87 71.7C87.6 72.1 88 72.5 88.1 73.1C88.2 73.6 88.1 74.2 87.8 74.7C87.5 75.3 87 75.6 86.5 75.7C86 76 85.4 75.8 84.8 75.4Z" fill="#32338B"/>
<path fill-rule="evenodd" clip-rule="evenodd" d="M89.5 71.7L85.6 69.9L86 69.1L89.2 70.6L90.2 68.6L90.9 68.9L89.5 71.7Z" fill="#32338B"/>
<path fill-rule="evenodd" clip-rule="evenodd" d="M91.3 67.8L87.2 66.4L87.5 65.5L90.9 66.7L91.6 64.6L92.3 64.9L91.3 67.8Z" fill="#32338B"/>
<path fill-rule="evenodd" clip-rule="evenodd" d="M92.7 63.8L88.4 62.8L89.2 59.6L89.9 59.8L89.4 62.1L90.3 62.3L90.8 60.2L91.6 60.4L91 62.5L92.2 62.8L92.8 60.4L93.5 60.6L92.7 63.8Z" fill="#32338B"/>
<path fill-rule="evenodd" clip-rule="evenodd" d="M92.4 57L91.7 56.9L92 55L93.7 55.2C93.9 55.4 94 55.7 94.1 56.1C94.2 56.5 94.2 56.8 94.2 57.2C94.1 57.7 94 58 93.7 58.4C93.5 58.7 93.1 58.9 92.8 59.1C92.5 59.3 92 59.3 91.6 59.2C91.1 59.1 90.8 59 90.4 58.7C90.1 58.5 89.8 58.1 89.7 57.7C89.6 57.4 89.6 57 89.6 56.6C89.7 56.1 89.8 55.6 90.1 55.4C90.4 55.1 90.7 55 91.1 54.9V55.8C90.9 55.8 90.7 55.9 90.5 56.1C90.4 56.3 90.3 56.5 90.2 56.7C90.1 57.1 90.2 57.4 90.4 57.7C90.6 58 91 58.1 91.4 58.2C91.9 58.3 92.3 58.2 92.6 58C92.9 57.8 93.1 57.5 93.1 57.1C93.1 56.9 93.1 56.7 93.1 56.5C93.1 56.3 93 56.1 92.9 56H92.6L92.4 57Z" fill="#32338B"/>
<path fill-rule="evenodd" clip-rule="evenodd" d="M94.4 53.9L90 53.8V50.5L90.8 50.6L90.7 52.9H91.7L91.8 50.7L92.5 50.8V53H93.7V50.5H94.5L94.4 53.9Z" fill="#32338B"/>
<path d="M50.6 87.8C71.3659 87.8 88.2 70.9659 88.2 50.2C88.2 29.4341 71.3659 12.6 50.6 12.6C29.8341 12.6 13 29.4341 13 50.2C13 70.9659 29.8341 87.8 50.6 87.8Z" fill="#32338B"/>
<path d="M50.6 87.8C71.3659 87.8 88.2 70.9659 88.2 50.2C88.2 29.4341 71.3659 12.6 50.6 12.6C29.8341 12.6 13 29.4341 13 50.2C13 70.9659 29.8341 87.8 50.6 87.8Z" stroke="#1D1D1B" stroke-width="0.3629" stroke-miterlimit="3.8637"/>
<path d="M82.6 67.9L61.2 68.3L50.8 87L39.8 68.7L18.4 69L28.8 50.3L17.7 32L39.1 31.6L49.5 12.9L60.6 31.2L82 30.8L71.6 49.6L82.6 67.9Z" fill="white"/>
<path d="M82.6 67.9L61.2 68.3L50.8 87L39.8 68.7L18.4 69L28.8 50.3L17.7 32L39.1 31.6L49.5 12.9L60.6 31.2L82 30.8L71.6 49.6L82.6 67.9Z" stroke="white" stroke-width="0.4989" stroke-miterlimit="3.8637"/>
<path d="M50 99C77.062 99 99 77.062 99 50C99 22.938 77.062 1 50 1C22.938 1 1 22.938 1 50C1 77.062 22.938 99 50 99Z" stroke="#32338B" stroke-width="1.0887" stroke-miterlimit="3.8637"/>
<path d="M10.5 44.2L8.49999 44.4L8.09999 46.4L7.29999 44.6L5.29999 44.8L6.79999 43.5L5.89999 41.7L7.69999 42.6L9.09999 41.3L8.69999 43.2L10.5 44.2Z" fill="#32338B"/>
<path d="M10.5 44.2L8.49999 44.4L8.09999 46.4L7.29999 44.6L5.29999 44.8L6.79999 43.5L5.89999 41.7L7.69999 42.6L9.09999 41.3L8.69999 43.2L10.5 44.2Z" stroke="#32338B" stroke-width="0.2684" stroke-miterlimit="3.8637"/>
<path d="M96.1 44.6L94.1 44.8L93.7 46.8L92.9 45L90.9 45.2L92.4 43.8L91.5 42L93.2 43L94.7 41.7L94.3 43.6L96.1 44.6Z" fill="#32338B"/>
<path d="M96.1 44.6L94.1 44.8L93.7 46.8L92.9 45L90.9 45.2L92.4 43.8L91.5 42L93.2 43L94.7 41.7L94.3 43.6L96.1 44.6Z" stroke="#32338B" stroke-width="0.2684" stroke-miterlimit="3.8637"/>
<path d="M31 65.4L31.1 41.3C33.5 38.2 36.3 36.8 40.2 36.8C43.8 36.8 46.2 37.8 48.6 40.4L48.7 49.9L45.2 52L48.6 53.7V65.2C45.3 63.2 42.8 62.6 39 62.8C35.7 63.1 33.8 63.7 31 65.4Z" stroke="#32338B" stroke-width="1.1311" stroke-miterlimit="3.8637"/>
<path d="M69.5 65.6V41.4C67.1 38.3 64.3 36.9 60.4 36.9C56.8 36.9 54.4 37.9 52 40.5V52.3V55.9V57.1V65.2C55 63 57.4 62.2 61.1 62.3C64.5 62.5 66.7 63.3 69.5 65.6Z" stroke="#32338B" stroke-width="1.1311" stroke-miterlimit="3.8637"/>
<path d="M50.2 28C49.7 29.3 49.4 30.1 48.7 31.3C47.9 32.9 47.3 33.8 46.2 35.2L48.7 41.2" stroke="#32338B" stroke-width="0.9856" stroke-miterlimit="3.8637"/>
<path d="M50.4 27.8C50.9 29.1 51.2 29.9 51.9 31.1C52.7 32.7 53.3 33.6 54.4 35L51.9 41" stroke="#32338B" stroke-width="0.9856" stroke-miterlimit="3.8637"/>
<path fill-rule="evenodd" clip-rule="evenodd" d="M49.4 28.1C49.4 27.6 49.8 27.2 50.3 27.2C50.8 27.2 51.2 27.6 51.2 28.1C51.2 28.6 50.8 29 50.3 29C49.8 29 49.4 28.6 49.4 28.1Z" fill="#32338B"/>
<path d="M49.4 28.1C49.4 27.6 49.8 27.2 50.3 27.2C50.8 27.2 51.2 27.6 51.2 28.1C51.2 28.6 50.8 29 50.3 29C49.8 29 49.4 28.6 49.4 28.1Z" stroke="#32338B" stroke-width="0.5704" stroke-miterlimit="3.8637"/>
<path d="M50.6 37.2C51.0971 37.2 51.5 36.7971 51.5 36.3C51.5 35.8029 51.0971 35.4 50.6 35.4C50.103 35.4 49.7 35.8029 49.7 36.3C49.7 36.7971 50.103 37.2 50.6 37.2Z" fill="#32338B"/>
<path d="M50.6 37.2C51.0971 37.2 51.5 36.7971 51.5 36.3C51.5 35.8029 51.0971 35.4 50.6 35.4C50.103 35.4 49.7 35.8029 49.7 36.3C49.7 36.7971 50.103 37.2 50.6 37.2Z" stroke="#32338B" stroke-width="0.5704" stroke-miterlimit="3.8637"/>
<path d="M49.9 20.1V24.5" stroke="#32338B" stroke-width="0.9856" stroke-miterlimit="3.8637"/>
<path d="M53.2 22.1L51.7 24.6" stroke="#32338B" stroke-width="0.9856" stroke-miterlimit="3.8637"/>
<path d="M54 24.9L52.8 26.1" stroke="#32338B" stroke-width="0.9856" stroke-miterlimit="3.8637"/>
<path d="M54.8 27.2L53.3 28" stroke="#32338B" stroke-width="0.9856" stroke-miterlimit="3.8637"/>
<path d="M46.7 22L48.1 24.5" stroke="#32338B" stroke-width="0.9856" stroke-miterlimit="3.8637"/>
<path d="M45.8 24.7L47 26" stroke="#32338B" stroke-width="0.9856" stroke-miterlimit="3.8637"/>
<path d="M45.1 27L46.5 27.8" stroke="#32338B" stroke-width="0.9856" stroke-miterlimit="3.8637"/>
<path fill-rule="evenodd" clip-rule="evenodd" d="M41.2 57.5V48.2C40.8 48.8 40.6 49.4 40.4 50C40.2 50.6 40.2 51.5 40.2 52.6V53.3V57.5H38.2V52.6C38.2 51.5 38.1 50.6 38 50C37.9 49.4 37.6 48.8 37.2 48.2V57.5H35.1V45.3H37.8C38.1 45.7 38.3 46.2 38.6 46.7C38.8 47.2 39 47.8 39.2 48.5C39.4 47.9 39.5 47.3 39.8 46.7C40 46.1 40.3 45.7 40.6 45.2H43.3V57.4H41.2V57.5Z" fill="#32338B"/>
<path fill-rule="evenodd" clip-rule="evenodd" d="M62.7 57.5V48.2C62.3 48.8 62.1 49.4 61.9 50C61.7 50.6 61.7 51.5 61.7 52.6V53.3V57.5H59.7V52.6C59.7 51.5 59.6 50.6 59.5 50C59.3 49.4 59.1 48.8 58.7 48.2V57.5H56.6V45.3H59.3C59.6 45.7 59.8 46.2 60.1 46.7C60.3 47.2 60.5 47.8 60.7 48.5C60.9 47.9 61 47.3 61.3 46.7C61.5 46.1 61.8 45.7 62.1 45.2H64.8V57.4H62.7V57.5Z" fill="#32338B"/>
<path fill-rule="evenodd" clip-rule="evenodd" d="M29.4 76.3V72H32V72.5H29.9V73.8H31.8V74.3H29.9V75.8H32.1V76.3H29.4Z" fill="white"/>
<path fill-rule="evenodd" clip-rule="evenodd" d="M32.5 75.4L32.9 75.3C32.9 75.5 33 75.7 33.1 75.8C33.2 75.9 33.4 76 33.5 76C33.7 76 33.8 76 33.9 75.9C34 75.8 34.1 75.7 34.1 75.5C34.1 75.4 34.1 75.3 34 75.2C33.9 75.2 33.8 75.1 33.6 75C33.3 74.9 33 74.8 32.9 74.7C32.8 74.6 32.7 74.5 32.6 74.4C32.6 74.3 32.6 74.2 32.6 74C32.6 73.7 32.7 73.5 32.9 73.4C33.1 73.2 33.3 73.2 33.6 73.2C33.8 73.2 34 73.2 34.1 73.3C34.2 73.4 34.4 73.5 34.4 73.6C34.5 73.7 34.5 73.9 34.6 74.1L34.2 74.2C34.2 73.9 34 73.7 33.6 73.7C33.4 73.7 33.3 73.7 33.2 73.8C33.1 73.9 33.1 74 33.1 74.1C33.1 74.2 33.1 74.3 33.2 74.4C33.3 74.4 33.4 74.5 33.7 74.6C34.1 74.7 34.3 74.8 34.4 74.9C34.5 75 34.6 75.1 34.6 75.2C34.6 75.3 34.7 75.5 34.7 75.6C34.7 75.9 34.6 76.1 34.4 76.3C34.2 76.5 34 76.6 33.6 76.6C33 76.4 32.6 76 32.5 75.4Z" fill="white"/>
<path fill-rule="evenodd" clip-rule="evenodd" d="M36.2 75.8L36.3 76.3C36.2 76.3 36.1 76.3 36 76.3C35.8 76.3 35.7 76.3 35.6 76.2C35.5 76.1 35.4 76.1 35.4 76C35.4 75.9 35.3 75.7 35.3 75.4V73.6H35V73.2H35.3V72.4L35.7 72.1V73.2H36.1V73.6H35.7V75.4C35.7 75.6 35.7 75.7 35.7 75.7C35.7 75.8 35.8 75.8 35.9 75.8C36.1 75.9 36.1 75.8 36.2 75.8Z" fill="white"/>
<path fill-rule="evenodd" clip-rule="evenodd" d="M36.9 74.7C36.9 75.1 37 75.4 37.1 75.6C37.2 75.8 37.4 75.9 37.6 75.9C37.8 75.9 37.9 75.8 38.1 75.6C38.2 75.4 38.3 75.1 38.3 74.7C38.3 74.3 38.2 73.9 38.1 73.7C38 73.5 37.8 73.4 37.6 73.4C37.4 73.4 37.3 73.5 37.1 73.7C37 74 36.9 74.3 36.9 74.7ZM38.3 76.3V75.9C38.2 76 38.1 76.2 38 76.2C37.9 76.3 37.7 76.3 37.6 76.3C37.3 76.3 37 76.2 36.8 75.9C36.6 75.6 36.5 75.2 36.5 74.7C36.5 74.3 36.5 74 36.6 73.8C36.7 73.6 36.8 73.4 37 73.3C37.2 73.2 37.3 73.1 37.5 73.1C37.6 73.1 37.8 73.1 37.9 73.2C38 73.3 38.1 73.4 38.2 73.5V72H38.6V76.3H38.3Z" fill="white"/>
<path d="M40.1 75.7H39.6V76.3H40.1V75.7Z" fill="white"/>
<path fill-rule="evenodd" clip-rule="evenodd" d="M64.6 75.8V76.3H62.3C62.3 76.1 62.4 75.9 62.5 75.6C62.6 75.3 62.9 75 63.2 74.7C63.6 74.3 63.9 74 64 73.8C64.1 73.6 64.2 73.4 64.2 73.2C64.2 73 64.1 72.8 64 72.7C63.9 72.6 63.7 72.5 63.5 72.5C63.3 72.5 63.1 72.6 63 72.7C62.9 72.8 62.8 73.1 62.8 73.3L62.4 73.2C62.4 72.8 62.5 72.5 62.8 72.3C63 72.1 63.3 72 63.6 72C64 72 64.2 72.1 64.4 72.4C64.6 72.6 64.7 72.9 64.7 73.2C64.7 73.5 64.6 73.7 64.5 74C64.4 74.3 64.1 74.6 63.7 75C63.4 75.3 63.3 75.4 63.2 75.5C63.1 75.6 63.1 75.7 63 75.8H64.6Z" fill="white"/>
<path fill-rule="evenodd" clip-rule="evenodd" d="M65.5 74.2C65.5 74.9 65.6 75.4 65.7 75.6C65.8 75.8 66 76 66.2 76C66.4 76 66.6 75.9 66.7 75.6C66.8 75.4 66.9 74.9 66.9 74.2C66.9 73.5 66.8 73 66.7 72.8C66.6 72.6 66.4 72.4 66.2 72.4C66 72.4 65.8 72.5 65.7 72.8C65.6 73 65.5 73.5 65.5 74.2ZM65.1 74.2C65.1 73.5 65.2 72.9 65.4 72.6C65.6 72.2 65.9 72 66.3 72C66.6 72 66.9 72.2 67.1 72.5C67.3 72.9 67.5 73.4 67.5 74.2C67.5 74.9 67.4 75.5 67.2 75.8C67 76.2 66.7 76.4 66.3 76.4C66 76.4 65.7 76.2 65.5 75.9C65.3 75.6 65.1 75 65.1 74.2Z" fill="white"/>
<path fill-rule="evenodd" clip-rule="evenodd" d="M68.3 74.2C68.3 74.9 68.4 75.4 68.5 75.6C68.6 75.8 68.8 76 69 76C69.2 76 69.4 75.9 69.5 75.6C69.6 75.3 69.7 74.9 69.7 74.2C69.7 73.5 69.6 73 69.5 72.8C69.4 72.6 69.2 72.4 69 72.4C68.8 72.4 68.6 72.5 68.5 72.8C68.4 73 68.3 73.5 68.3 74.2ZM67.9 74.2C67.9 73.5 68 72.9 68.2 72.6C68.4 72.2 68.7 72 69.1 72C69.4 72 69.7 72.2 69.9 72.5C70.1 72.9 70.3 73.4 70.3 74.2C70.3 74.9 70.2 75.5 70 75.8C69.8 76.2 69.5 76.4 69.1 76.4C68.8 76.4 68.5 76.2 68.3 75.9C68.1 75.6 67.9 75 67.9 74.2Z" fill="white"/>
<path fill-rule="evenodd" clip-rule="evenodd" d="M72.3 76.3H71.9V72.9C71.8 73 71.7 73.1 71.5 73.3C71.3 73.4 71.2 73.5 71 73.6V73.1C71.2 73 71.4 72.8 71.6 72.6C71.8 72.4 71.9 72.2 72 72H72.3V76.3Z" fill="white"/>
</svg>
