<svg width="110" height="111" viewBox="0 0 110 111" fill="none" xmlns="http://www.w3.org/2000/svg">
<path d="M94.1089 100.835L82.5549 72.6151C82.1873 71.728 81.6162 70.9412 80.8884 70.319C80.1606 69.6969 79.2967 69.2572 78.3675 69.0359L77.8101 68.9044L61.474 65.0836L61.1872 43.4882C61.1845 40.2353 59.899 37.1165 57.6132 34.8173C55.3274 32.5181 52.2284 31.2266 48.9971 31.2266C45.7659 31.2266 42.6669 32.5181 40.3811 34.8173C38.0953 37.1165 36.8098 40.2353 36.8071 43.4882L37.0939 66.6892C37.0895 69.8559 38.3046 72.901 40.4838 75.1847C41.1522 76.0354 41.9819 76.7438 42.9246 77.2688C43.8674 77.7939 44.9044 78.125 45.9754 78.2429L51.1523 78.8175L72.5213 81.1938L84.0272 105.356C84.6486 106.661 85.7511 107.671 87.1003 108.17C88.4494 108.669 89.9388 108.619 91.2519 108.03C92.5649 107.442 93.598 106.36 94.1315 105.017C94.6651 103.673 94.6569 102.173 94.1089 100.835Z" fill="white"/>
<path d="M48.7103 26.5307C55.2843 26.5307 60.6135 21.1656 60.6135 14.5474C60.6135 7.92929 55.2843 2.56421 48.7103 2.56421C42.1363 2.56421 36.807 7.92929 36.807 14.5474C36.807 21.1656 42.1363 26.5307 48.7103 26.5307Z" fill="white"/>
<path d="M68.0699 87.1434C67.3815 86.8628 66.6105 86.869 65.9266 87.1606C65.2426 87.4521 64.7018 88.0053 64.4229 88.6983C63.0919 92.0046 61.0058 94.9487 58.3335 97.2918C55.6612 99.6349 52.4781 101.311 49.0422 102.184C45.6063 103.058 42.0143 103.104 38.5575 102.318C35.1007 101.533 31.8763 99.9388 29.1458 97.6648C26.4153 95.3908 24.2556 92.501 22.8417 89.2297C21.4278 85.9584 20.7995 82.3978 21.0078 78.8364C21.2161 75.275 22.2551 71.8132 24.0406 68.7316C25.8261 65.65 28.3078 63.0353 31.2845 61.0996C31.9081 60.6934 32.3459 60.0544 32.5015 59.3233C32.6572 58.5921 32.5179 57.8287 32.1144 57.2009C31.711 56.5731 31.0763 56.1324 30.35 55.9757C29.6237 55.819 28.8654 55.9592 28.2418 56.3654C24.5426 58.7834 21.4565 62.0391 19.2303 65.8722C17.004 69.7053 15.6993 74.0096 15.4203 78.4409C15.1946 82.1555 15.6978 85.8785 16.9013 89.3973C18.1048 92.9161 19.985 96.1618 22.4345 98.9491C24.884 101.736 27.8548 104.011 31.1774 105.642C34.5 107.273 38.1092 108.23 41.799 108.457C42.3806 108.493 42.9596 108.511 43.5358 108.511C49.1393 108.512 54.6155 106.829 59.262 103.676C63.9085 100.523 67.5135 96.0445 69.6145 90.8149C69.8932 90.1218 69.8871 89.3457 69.5974 88.6571C69.3078 87.9686 68.7583 87.4241 68.0699 87.1434Z" fill="white"/>
</svg>
