<svg width="97" height="97" viewBox="0 0 97 97" fill="none" xmlns="http://www.w3.org/2000/svg">
<path d="M93.9688 78.8125C92.15 78.8125 90.9375 77.6 90.9375 75.7812V36.375C90.9375 34.5562 92.15 33.3438 93.9688 33.3438C95.7875 33.3438 97 34.5562 97 36.375V75.7812C97 77.6 95.7875 78.8125 93.9688 78.8125Z" fill="white"/>
<path d="M48.5 63.6562C47.8937 63.6562 47.5906 63.6562 46.9844 63.3531L1.51562 39.1031C0.60625 38.4968 0 37.5875 0 36.375C0 35.1625 0.60625 34.2531 1.51562 33.6468L46.9844 9.39683C47.8937 8.79058 48.8031 8.79058 49.7125 9.39683L95.1812 33.6468C96.0906 34.2531 96.6969 35.1625 96.6969 36.375C96.6969 37.5875 96.0906 38.4968 95.1812 39.1031L49.7125 63.3531C49.4094 63.6562 49.1062 63.6562 48.5 63.6562Z" fill="white"/>
<path d="M52.7437 68.5063C51.5312 69.4157 50.0156 69.7188 48.5 69.7188C46.9844 69.7188 45.4688 69.4157 44.2563 68.5063L18.1875 54.8657V66.6876C18.1875 76.0845 33.0406 84.8751 48.5 84.8751C63.9594 84.8751 78.8125 76.0845 78.8125 66.6876V54.8657L52.7437 68.5063Z" fill="white"/>
</svg>
