<svg width="550" height="184" viewBox="0 0 550 184" fill="none" xmlns="http://www.w3.org/2000/svg">
<path fill-rule="evenodd" clip-rule="evenodd" d="M101.497 44.5165L119.606 80.7344L129.77 60.4341C135.361 49.267 140.831 39.5466 141.926 38.8321C145.269 36.6514 189.833 37.2333 192.088 39.4883C193.586 40.9863 188.015 53.662 170.122 89.4519C156.935 115.827 145.246 137.992 144.147 138.706C143.047 139.421 131.332 140.017 118.11 140.033L94.0724 140.059L83.4412 118.394L72.8118 96.728L62.6033 117.067C56.9896 128.254 51.4981 137.992 50.4033 138.706C47.0606 140.887 2.49655 140.305 0.241555 138.05C-1.25647 136.552 4.03525 124.442 21.1113 90.3115C33.6951 65.1581 43.9903 43.3616 43.9903 41.8741C43.9903 40.3867 40.7802 32.7852 36.8574 24.9838C32.9346 17.1824 30.2091 10.0159 30.8016 9.05908C31.4489 8.01028 42.1031 7.5133 57.6317 7.80866L83.3882 8.2968L101.497 44.5165ZM29.8413 88.7692L8.60361 131.216H28.0585H47.5134L68.751 88.7692L89.9887 46.3222H70.5338H51.0789L29.8413 88.7692Z" fill="#0029FF"/>
<path d="M303.107 139.984H282.664V40.0051H303.107V139.984ZM228.347 139.984H207.903V40.0051H228.347V139.984ZM292.96 98.9478H213.872V80.4443H292.96V98.9478ZM356.623 141.476C348.266 141.476 340.905 139.884 334.538 136.701C328.171 133.518 323.197 128.991 319.616 123.122C316.134 117.252 314.393 110.438 314.393 102.678C314.393 94.8193 316.134 88.0048 319.616 82.2349C323.197 76.465 328.171 71.9883 334.538 68.8049C340.905 65.5221 348.266 63.8806 356.623 63.8806C365.079 63.8806 372.44 65.5221 378.708 68.8049C385.075 71.9883 389.999 76.465 393.481 82.2349C397.062 88.0048 398.853 94.8193 398.853 102.678C398.853 110.438 397.062 117.252 393.481 123.122C389.999 128.991 385.075 133.518 378.708 136.701C372.44 139.884 365.079 141.476 356.623 141.476ZM356.623 123.271C364.681 123.271 370.351 121.58 373.634 118.197C376.917 114.815 378.558 109.642 378.558 102.678C378.558 95.7146 376.917 90.5416 373.634 87.1592C370.351 83.7769 364.681 82.0857 356.623 82.0857C348.664 82.0857 342.994 83.7769 339.612 87.1592C336.329 90.5416 334.687 95.7146 334.687 102.678C334.687 109.642 336.329 114.815 339.612 118.197C342.994 121.58 348.664 123.271 356.623 123.271ZM447.246 141.476C434.811 141.476 425.261 139.138 418.595 134.463C411.93 129.787 408.598 123.122 408.598 114.467V114.019H429.041V115.362C429.041 119.142 430.384 121.729 433.07 123.122C435.756 124.514 440.481 125.211 447.246 125.211C453.613 125.211 457.891 124.614 460.079 123.42C462.268 122.226 463.362 120.336 463.362 117.75C463.362 115.362 462.516 113.721 460.825 112.825C459.134 111.831 455.951 110.985 451.275 110.289L430.533 107.752C423.172 106.956 417.451 104.917 413.373 101.634C409.393 98.2514 407.404 93.4266 407.404 87.1592C407.404 82.7821 408.697 78.8526 411.284 75.3707C413.87 71.8889 417.849 69.1034 423.221 67.0143C428.593 64.9252 435.358 63.8806 443.516 63.8806C451.574 63.8806 458.388 64.9252 463.959 67.0143C469.629 69.0039 473.957 72.0381 476.941 76.1168C479.926 80.0961 481.418 85.0701 481.418 91.039V91.6359H460.825V90.7406C460.825 88.353 460.328 86.4131 459.333 84.9209C458.438 83.3292 456.697 82.1354 454.11 81.3396C451.524 80.5437 447.793 80.1458 442.919 80.1458C436.95 80.1458 432.871 80.7924 430.682 82.0857C428.593 83.2795 427.549 85.2194 427.549 87.9054C427.549 90.0939 428.394 91.7354 430.086 92.8297C431.777 93.8245 435.159 94.6701 440.233 95.3665L456.498 97.4556C466.148 98.5499 473.061 100.788 477.24 104.171C481.418 107.553 483.507 112.378 483.507 118.645C483.507 123.221 482.015 127.25 479.03 130.732C476.145 134.114 471.967 136.751 466.496 138.641C461.124 140.531 454.707 141.476 447.246 141.476ZM546.276 139.984H528.22C519.764 139.984 513.049 137.895 508.075 133.717C503.2 129.538 500.763 122.823 500.763 113.572V50.4506H521.356V111.632C521.356 115.511 522.201 118.148 523.893 119.54C525.683 120.834 528.668 121.48 532.846 121.48H546.276V139.984ZM546.276 82.3841H488.825V65.3728H546.276V82.3841Z" fill="#0029FF"/>
</svg>
